<svg width="18" height="18" viewBox="0 0 18 18" fill="none" xmlns="http://www.w3.org/2000/svg">
<path fill-rule="evenodd" clip-rule="evenodd" d="M7.25114 1.68545C8.315 0.195994 10.5287 0.195994 11.5926 1.68545L11.762 1.92258C11.9492 2.18472 12.2636 2.32508 12.5837 2.28951L13.3387 2.20562C15.0378 2.01684 16.4734 3.45248 16.2846 5.15153L16.2008 5.90648C16.1652 6.22664 16.3055 6.54101 16.5677 6.72825L16.8048 6.89763C18.2942 7.96149 18.2942 10.1752 16.8048 11.2391L16.5677 11.4085C16.3055 11.5957 16.1652 11.9101 16.2008 12.2302L16.2846 12.9852C16.4734 14.6843 15.0378 16.1199 13.3387 15.9311L12.5837 15.8473C12.2636 15.8117 11.9492 15.952 11.762 16.2141L11.5926 16.4513C10.5287 17.9407 8.31509 17.9407 7.25114 16.4513L7.08177 16.2141C6.89453 15.952 6.58016 15.8117 6.25999 15.8473L5.50504 15.9311C3.806 16.1199 2.37036 14.6843 2.55914 12.9852L2.64303 12.2302C2.67859 11.9101 2.53823 11.5957 2.27609 11.4085L2.03897 11.2391C0.54951 10.1752 0.54951 7.96158 2.03897 6.89763L2.27609 6.72825C2.53823 6.54101 2.67859 6.22664 2.64303 5.90647L2.55914 5.15153C2.37036 3.45248 3.806 2.01684 5.50504 2.20562L6.26 2.28951C6.58016 2.32508 6.89453 2.18472 7.08177 1.92258L7.25114 1.68545ZM12.7183 6.66119C13.0655 7.00845 13.0655 7.57148 12.7183 7.91872L9.32247 11.3145C8.88632 11.7508 8.17904 11.7508 7.74289 11.3145L6.12549 9.69713C5.77824 9.3499 5.77824 8.78685 6.12549 8.43961C6.47276 8.09238 7.03577 8.09238 7.38303 8.43961L8.53268 9.58927L11.4608 6.66119C11.808 6.31393 12.371 6.31393 12.7183 6.66119Z" fill="#090909"/>
</svg>
