<svg width="24" height="24" viewBox="0 0 24 24" fill="none" xmlns="http://www.w3.org/2000/svg">
<path d="M20.668 3.18359H3.33202C1.49189 3.18359 0 4.67548 0 6.51561V17.4836C0 19.3237 1.49189 20.8156 3.33202 20.8156H20.668C22.5081 20.8156 24 19.3237 24 17.4836V6.51561C24 4.67548 22.5081 3.18359 20.668 3.18359ZM8.35153 15.0802L3.68559 19.0609C3.35648 19.3417 2.86172 19.3027 2.58089 18.9733C2.30002 18.6441 2.33906 18.1494 2.66855 17.8685L7.33448 13.8879C7.66355 13.607 8.15827 13.6461 8.43914 13.9756C8.72002 14.3046 8.68097 14.7994 8.35153 15.0802ZM12 13.5669C11.3759 13.5654 10.7709 13.358 10.298 12.949L10.2983 12.9493L10.2968 12.9482C10.2972 12.9486 10.2976 12.9486 10.298 12.949L3.13884 6.73527C2.81166 6.4513 2.77683 5.95658 3.06038 5.62981C3.3443 5.30262 3.83906 5.2678 4.16578 5.55134L11.3269 11.7666C11.48 11.9028 11.7322 12.0012 12 11.9996C12.2675 12.0004 12.5154 11.9047 12.6769 11.7639L12.6803 11.7609L19.8342 5.55139C20.1609 5.26784 20.6557 5.30267 20.9396 5.62986C21.2231 5.95658 21.1883 6.45134 20.8612 6.73531L13.7001 12.9509C13.2286 13.3557 12.6245 13.5661 12 13.5669ZM21.4194 18.9733C21.1386 19.3027 20.6438 19.3417 20.3148 19.0609L15.6488 15.0802C15.3194 14.7994 15.2804 14.3046 15.5612 13.9756C15.8421 13.6461 16.3368 13.6071 16.6659 13.8879L21.3318 17.8685C21.6613 18.1494 21.7003 18.6441 21.4194 18.9733Z" fill="#79C7EE"/>
</svg>
