<svg width="24" height="24" viewBox="0 0 24 24" fill="none" xmlns="http://www.w3.org/2000/svg">
<path d="M19.8674 22.4994H4.12491C3.7775 22.5109 3.43148 22.4502 3.10874 22.3211C2.786 22.192 2.49356 21.9973 2.24991 21.7494C2.00388 21.5075 1.81031 21.2175 1.68128 20.8975C1.55224 20.5775 1.4905 20.2343 1.49991 19.8894V4.12442C1.48842 3.77701 1.54914 3.43099 1.67824 3.10825C1.80733 2.78551 2.00199 2.49307 2.24991 2.24942C2.49356 2.00151 2.786 1.80685 3.10874 1.67775C3.43148 1.54865 3.7775 1.48793 4.12491 1.49942H19.8749C20.2223 1.48793 20.5683 1.54865 20.8911 1.67775C21.2138 1.80685 21.5063 2.00151 21.7499 2.24942C21.9978 2.49307 22.1925 2.78551 22.3216 3.10825C22.4507 3.43099 22.5114 3.77701 22.4999 4.12442V19.8744C22.496 20.5707 22.2171 21.2372 21.724 21.7289C21.231 22.2205 20.5637 22.4975 19.8674 22.4994ZM13.0574 18.8919V12.5994H15.1799L15.4949 10.1544H13.0574V8.78192C13.0358 8.5299 13.0587 8.27604 13.1249 8.03192C13.146 7.94419 13.1815 7.86056 13.2299 7.78442C13.3874 7.49942 13.7999 7.35692 14.4524 7.35692H15.5774V5.20442C14.9549 5.13385 14.3289 5.0988 13.7024 5.09942C13.1657 5.05476 12.6273 5.16187 12.1485 5.40853C11.6698 5.6552 11.2701 6.03147 10.9949 6.49442C10.6726 7.03859 10.5089 7.66209 10.5224 8.29442V10.1544H8.42241V12.5994H10.4999V18.8919H13.0574Z" fill="white"/>
</svg>
