<svg width="24" height="24" viewBox="0 0 24 24" fill="none" xmlns="http://www.w3.org/2000/svg">
<path d="M7.78111 16.1839C10.684 19.0868 14.2197 21.3267 17.1025 21.3267C18.3983 21.3267 19.5333 20.8747 20.4474 19.8703C20.9796 19.2776 21.3113 18.5845 21.3113 17.9015C21.3113 17.3993 21.1204 16.9171 20.6382 16.5756L17.5646 14.3859C17.0925 14.0644 16.7007 13.9037 16.3392 13.9037C15.8771 13.9037 15.4753 14.1649 15.0132 14.6169L14.3001 15.32C14.1896 15.4305 14.049 15.4807 13.9184 15.4807C13.7577 15.4807 13.617 15.4205 13.5066 15.3703C12.8938 15.0388 11.8291 14.1247 10.8347 13.1404C9.85029 12.156 8.93623 11.0912 8.61481 10.4685C8.55455 10.358 8.50432 10.2173 8.50432 10.0667C8.50432 9.9361 8.54452 9.80551 8.655 9.69503L9.35812 8.96179C9.81013 8.4997 10.0713 8.09791 10.0713 7.63587C10.0713 7.27429 9.91059 6.88253 9.57909 6.41046L7.41948 3.36691C7.06792 2.88477 6.57575 2.67383 6.03335 2.67383C5.37039 2.67383 4.67731 2.97516 4.09471 3.54773C3.12039 4.48189 2.68848 5.63701 2.68848 6.91266C2.68848 9.79549 4.88825 13.291 7.78111 16.1839Z" fill="#79C7EE"/>
</svg>
