<svg width="24" height="24" viewBox="0 0 24 24" fill="none" xmlns="http://www.w3.org/2000/svg">
<rect width="24" height="24" fill="#F5F5F5"/>
<g id="Motor Insurance" clip-path="url(#clip0_1566_2783)">
<rect width="1440" height="3672" transform="translate(-339 -3441)" fill="white"/>
<g id="Group 322">
<g id="Group 308">
<path id="Vector 30" d="M-339 231V-416.104C-202.385 -378.64 28.6923 -451.581 127.154 -492.735C333.923 -584.692 577.154 -559.929 704.077 -535.307C777 -516 1013.31 -430.295 1101 -416.104V231H-339Z" fill="#37A6DE"/>
<g id="Group 174">
<rect id="Rectangle 99" x="0.5" y="0.5" width="23" height="23" rx="4.5" stroke="#37A6DE"/>
<g id="Group 172">
<g id="Group 173">
<path id="Vector" d="M20.5519 22.0002H4.44839C3.09613 22.0002 2 20.9041 2 19.5519V3.44839C2 2.09613 3.09613 1 4.44839 1H20.5516C21.9039 1 23 2.09613 23 3.44839V19.5516C23.0002 20.9041 21.9041 22.0002 20.5519 22.0002Z" fill="white" stroke="#37A6DE" stroke-miterlimit="10"/>
<g id="layer1">
<g id="path1009">
<mask id="path-4-inside-1_1566_2783" fill="white">
<path d="M5.22649 4.6582L10.8708 12.2053L5.19092 18.3412H6.46933L11.4422 12.969L15.4599 18.3412H19.8101L13.8481 10.3697L19.135 4.6582H17.8566L13.277 9.60577L9.57668 4.6582H5.22649ZM7.10645 5.60003H9.10491L17.9299 17.3997H15.9315L7.10645 5.60003Z"/>
</mask>
<path d="M5.22649 4.6582L10.8708 12.2053L5.19092 18.3412H6.46933L11.4422 12.969L15.4599 18.3412H19.8101L13.8481 10.3697L19.135 4.6582H17.8566L13.277 9.60577L9.57668 4.6582H5.22649ZM7.10645 5.60003H9.10491L17.9299 17.3997H15.9315L7.10645 5.60003Z" fill="#174A77"/>
<path d="M5.22649 4.6582V3.6582H3.22988L4.42568 5.25712L5.22649 4.6582ZM10.8708 12.2053L11.6047 12.8846L12.1704 12.2734L11.6716 11.6064L10.8708 12.2053ZM5.19092 18.3412L4.45706 17.6619L2.90258 19.3412H5.19092V18.3412ZM6.46933 18.3412V19.3412H6.90634L7.20319 19.0205L6.46933 18.3412ZM11.4422 12.969L12.243 12.3701L11.5239 11.4086L10.7083 12.2897L11.4422 12.969ZM15.4599 18.3412L14.6591 18.9401L14.9591 19.3412H15.4599V18.3412ZM19.8101 18.3412V19.3412H21.8068L20.6109 17.7423L19.8101 18.3412ZM13.8481 10.3697L13.1143 9.69043L12.5485 10.3017L13.0473 10.9687L13.8481 10.3697ZM19.135 4.6582L19.8688 5.3375L21.4233 3.6582H19.135V4.6582ZM17.8566 4.6582V3.6582H17.4196L17.1227 3.97892L17.8566 4.6582ZM13.277 9.60577L12.4762 10.2047L13.1953 11.1662L14.0109 10.2851L13.277 9.60577ZM9.57668 4.6582L10.3775 4.05928L10.0775 3.6582H9.57668V4.6582ZM7.10645 5.60003V4.60003H5.1098L6.30565 6.19895L7.10645 5.60003ZM9.10491 5.60003L9.90572 5.0011L9.60575 4.60003H9.10491V5.60003ZM17.9299 17.3997V18.3997H19.9266L18.7307 16.8007L17.9299 17.3997ZM15.9315 17.3997L15.1307 17.9986L15.4306 18.3997H15.9315V17.3997ZM5.22649 4.6582L4.42568 5.25712L10.07 12.8042L10.8708 12.2053L11.6716 11.6064L6.02731 4.05929L5.22649 4.6582ZM10.8708 12.2053L10.1369 11.526L4.45706 17.6619L5.19092 18.3412L5.92477 19.0205L11.6047 12.8846L10.8708 12.2053ZM5.19092 18.3412V19.3412H6.46933V18.3412V17.3412H5.19092V18.3412ZM6.46933 18.3412L7.20319 19.0205L12.176 13.6483L11.4422 12.969L10.7083 12.2897L5.73547 17.6619L6.46933 18.3412ZM11.4422 12.969L10.6414 13.5679L14.6591 18.9401L15.4599 18.3412L16.2608 17.7423L12.243 12.3701L11.4422 12.969ZM15.4599 18.3412V19.3412H19.8101V18.3412V17.3412H15.4599V18.3412ZM19.8101 18.3412L20.6109 17.7423L14.6489 9.7708L13.8481 10.3697L13.0473 10.9687L19.0093 18.9402L19.8101 18.3412ZM13.8481 10.3697L14.582 11.049L19.8688 5.3375L19.135 4.6582L18.4011 3.97891L13.1143 9.69043L13.8481 10.3697ZM19.135 4.6582V3.6582H17.8566V4.6582V5.6582H19.135V4.6582ZM17.8566 4.6582L17.1227 3.97892L12.5431 8.92648L13.277 9.60577L14.0109 10.2851L18.5904 5.33749L17.8566 4.6582ZM13.277 9.60577L14.0778 9.00685L10.3775 4.05928L9.57668 4.6582L8.77588 5.25713L12.4762 10.2047L13.277 9.60577ZM9.57668 4.6582V3.6582H5.22649V4.6582V5.6582H9.57668V4.6582ZM7.10645 5.60003V6.60003H9.10491V5.60003V4.60003H7.10645V5.60003ZM9.10491 5.60003L8.30411 6.19895L17.1291 17.9986L17.9299 17.3997L18.7307 16.8007L9.90572 5.0011L9.10491 5.60003ZM17.9299 17.3997V16.3997H15.9315V17.3997V18.3997H17.9299V17.3997ZM15.9315 17.3997L16.7323 16.8007L7.90726 5.0011L7.10645 5.60003L6.30565 6.19895L15.1307 17.9986L15.9315 17.3997Z" fill="#37A6DE" mask="url(#path-4-inside-1_1566_2783)"/>
</g>
</g>
</g>
</g>
</g>
</g>
</g>
</g>
<defs>
<clipPath id="clip0_1566_2783">
<rect width="1440" height="3672" fill="white" transform="translate(-339 -3441)"/>
</clipPath>
</defs>
</svg>
