<svg width="42" height="42" viewBox="0 0 42 42" fill="none" xmlns="http://www.w3.org/2000/svg">
<path d="M24.5 38.5H17.5C10.9003 38.5 7.60051 38.5 5.55025 36.4497C3.5 34.3996 3.5 31.0996 3.5 24.5V21C3.5 14.4003 3.5 11.1005 5.55025 9.05025C7.60051 7 10.9003 7 17.5 7H24.5C31.0996 7 34.3996 7 36.4497 9.05025C38.5 11.1005 38.5 14.4003 38.5 21V24.5C38.5 31.0996 38.5 34.3996 36.4497 36.4497C35.3066 37.5928 33.7752 38.0986 31.5 38.3224" stroke="white" stroke-width="2" stroke-linecap="round"/>
<path d="M12.25 7V4.375" stroke="white" stroke-width="2" stroke-linecap="round"/>
<path d="M29.75 7V4.375" stroke="white" stroke-width="2" stroke-linecap="round"/>
<path d="M37.625 15.75H29.0938H18.8125M3.5 15.75H10.2812" stroke="white" stroke-width="2" stroke-linecap="round"/>
<path d="M31.5 29.75C31.5 30.7165 30.7165 31.5 29.75 31.5C28.7835 31.5 28 30.7165 28 29.75C28 28.7835 28.7835 28 29.75 28C30.7165 28 31.5 28.7835 31.5 29.75Z" fill="white"/>
<path d="M31.5 22.75C31.5 23.7165 30.7165 24.5 29.75 24.5C28.7835 24.5 28 23.7165 28 22.75C28 21.7835 28.7835 21 29.75 21C30.7165 21 31.5 21.7835 31.5 22.75Z" fill="white"/>
<path d="M22.75 29.75C22.75 30.7165 21.9665 31.5 21 31.5C20.0335 31.5 19.25 30.7165 19.25 29.75C19.25 28.7835 20.0335 28 21 28C21.9665 28 22.75 28.7835 22.75 29.75Z" fill="white"/>
<path d="M22.75 22.75C22.75 23.7165 21.9665 24.5 21 24.5C20.0335 24.5 19.25 23.7165 19.25 22.75C19.25 21.7835 20.0335 21 21 21C21.9665 21 22.75 21.7835 22.75 22.75Z" fill="white"/>
<path d="M14 29.75C14 30.7165 13.2165 31.5 12.25 31.5C11.2835 31.5 10.5 30.7165 10.5 29.75C10.5 28.7835 11.2835 28 12.25 28C13.2165 28 14 28.7835 14 29.75Z" fill="white"/>
<path d="M14 22.75C14 23.7165 13.2165 24.5 12.25 24.5C11.2835 24.5 10.5 23.7165 10.5 22.75C10.5 21.7835 11.2835 21 12.25 21C13.2165 21 14 21.7835 14 22.75Z" fill="white"/>
</svg>
