<svg width="17" height="17" viewBox="0 0 17 17" fill="none" xmlns="http://www.w3.org/2000/svg">
<path fill-rule="evenodd" clip-rule="evenodd" d="M6.32927 1.11709C7.39313 -0.372365 9.60681 -0.372365 10.6707 1.11709L10.8401 1.35422C11.0273 1.61636 11.3417 1.75672 11.6619 1.72115L12.4168 1.63726C14.1159 1.44848 15.5515 2.88412 15.3627 4.58317L15.2789 5.33812C15.2433 5.65828 15.3836 5.97265 15.6458 6.15989L15.8829 6.32927C17.3724 7.39313 17.3724 9.60681 15.8829 10.6707L15.6458 10.8401C15.3836 11.0273 15.2433 11.3417 15.2789 11.6619L15.3627 12.4168C15.5515 14.1159 14.1159 15.5515 12.4168 15.3627L11.6619 15.2789C11.3417 15.2433 11.0273 15.3836 10.8401 15.6458L10.6707 15.8829C9.60681 17.3724 7.39322 17.3724 6.32927 15.8829L6.15989 15.6458C5.97265 15.3836 5.65828 15.2433 5.33811 15.2789L4.58317 15.3627C2.88412 15.5515 1.44848 14.1159 1.63726 12.4168L1.72115 11.6619C1.75672 11.3417 1.61636 11.0273 1.35422 10.8401L1.11709 10.6707C-0.372365 9.60681 -0.372365 7.39322 1.11709 6.32927L1.35422 6.15989C1.61636 5.97265 1.75672 5.65828 1.72115 5.33811L1.63726 4.58317C1.44848 2.88412 2.88412 1.44848 4.58317 1.63726L5.33812 1.72115C5.65828 1.75672 5.97265 1.61636 6.15989 1.35422L6.32927 1.11709ZM11.7964 6.09283C12.1436 6.44009 12.1436 7.00312 11.7964 7.35036L8.4006 10.7462C7.96444 11.1824 7.25717 11.1824 6.82101 10.7462L5.20362 9.12877C4.85637 8.78154 4.85637 8.21849 5.20362 7.87125C5.55088 7.52402 6.11389 7.52402 6.46116 7.87125L7.61081 9.02091L10.5389 6.09283C10.8861 5.74557 11.4492 5.74557 11.7964 6.09283Z" fill="#090909"/>
</svg>
