<svg width="35" height="35" viewBox="0 0 35 35" fill="none" xmlns="http://www.w3.org/2000/svg">
<path d="M17.5 2.97266C9.47734 2.97266 2.97363 9.47637 2.97363 17.499C2.97363 25.5217 9.47734 32.0254 17.5 32.0254C25.5227 32.0254 32.0264 25.5217 32.0264 17.499C32.0264 9.47637 25.5227 2.97266 17.5 2.97266ZM22.158 24.4854C22.5859 24.9119 22.5866 25.6044 22.1601 26.0323C21.9461 26.2463 21.6658 26.3536 21.3855 26.3536C21.106 26.3536 20.8271 26.247 20.6131 26.0344L12.842 18.2852C12.6362 18.0801 12.5207 17.8019 12.5207 17.5113C12.5207 17.2208 12.6355 16.9426 12.8413 16.7368L20.6131 8.96504C21.0403 8.53779 21.7328 8.53779 22.1601 8.96504C22.5873 9.39229 22.5873 10.0848 22.1601 10.512L15.1621 17.5093L22.158 24.4854Z" fill="#B2B2B2"/>
</svg>
