<svg width="56" height="56" viewBox="0 0 56 56" fill="none" xmlns="http://www.w3.org/2000/svg">
<circle cx="27.8315" cy="27.8124" r="27.8124" fill="#C3E7F9"/>
<path fill-rule="evenodd" clip-rule="evenodd" d="M24.2801 15.7338C26.0206 13.2971 29.6423 13.2971 31.3829 15.7338L31.66 16.1218C31.9663 16.5507 32.4807 16.7803 33.0044 16.7221L34.2395 16.5849C37.0193 16.276 39.368 18.6247 39.0591 21.4044L38.922 22.6396C38.8638 23.1633 39.0933 23.6777 39.5222 23.984L39.9102 24.2611C42.3469 26.0016 42.3469 29.6232 39.9102 31.3639L39.5222 31.641C39.0933 31.9472 38.8638 32.4616 38.922 32.9854L39.0591 34.2205C39.368 37.0002 37.0193 39.3489 34.2395 39.0401L33.0044 38.9029C32.4807 38.8447 31.9663 39.0743 31.66 39.5031L31.3829 39.8911C29.6423 42.3279 26.0208 42.3279 24.2801 39.8911L24.003 39.5031C23.6967 39.0743 23.1824 38.8447 22.6586 38.9029L21.4235 39.0401C18.6438 39.3489 16.2951 37.0002 16.6039 34.2205L16.7411 32.9854C16.7993 32.4616 16.5697 31.9472 16.1408 31.641L15.7529 31.3639C13.3161 29.6232 13.3161 26.0017 15.7529 24.2611L16.1408 23.984C16.5697 23.6777 16.7993 23.1633 16.7411 22.6395L16.6039 21.4044C16.2951 18.6247 18.6438 16.276 21.4235 16.5849L22.6586 16.7221C23.1824 16.7803 23.6967 16.5507 24.003 16.1218L24.2801 15.7338ZM33.2245 23.8743C33.7926 24.4424 33.7926 25.3635 33.2245 25.9316L27.6689 31.4872C26.9553 32.2009 25.7982 32.2009 25.0846 31.4872L22.4385 28.8412C21.8704 28.2731 21.8704 27.3519 22.4385 26.7838C23.0067 26.2157 23.9278 26.2157 24.4959 26.7838L26.3768 28.6647L31.1672 23.8743C31.7353 23.3062 32.6564 23.3062 33.2245 23.8743Z" fill="#37A6DE"/>
</svg>
