<svg width="24" height="24" viewBox="0 0 24 24" fill="none" xmlns="http://www.w3.org/2000/svg">
<path d="M19.3689 22.0014H3.62637C3.27896 22.0129 2.93295 21.9521 2.6102 21.823C2.28746 21.6939 1.99502 21.4993 1.75137 21.2514C1.50534 21.0095 1.31178 20.7195 1.18274 20.3994C1.05371 20.0794 0.991968 19.7363 1.00137 19.3914V3.62637C0.989883 3.27896 1.05061 2.93295 1.1797 2.6102C1.3088 2.28746 1.50346 1.99502 1.75137 1.75137C1.99502 1.50346 2.28746 1.3088 2.6102 1.1797C2.93295 1.05061 3.27896 0.989883 3.62637 1.00137H19.3764C19.7238 0.989883 20.0698 1.05061 20.3925 1.1797C20.7153 1.3088 21.0077 1.50346 21.2514 1.75137C21.4993 1.99502 21.6939 2.28746 21.823 2.6102C21.9521 2.93295 22.0129 3.27896 22.0014 3.62637V19.3764C21.9974 20.0726 21.7186 20.7392 21.2255 21.2308C20.7325 21.7225 20.0652 21.9994 19.3689 22.0014ZM12.5589 18.3939V12.1014H14.6814L14.9964 9.65637H12.5589V8.28387C12.5373 8.03185 12.5601 7.77799 12.6264 7.53387C12.6475 7.44614 12.683 7.36251 12.7314 7.28637C12.8889 7.00137 13.3014 6.85887 13.9539 6.85887H15.0789V4.70637C14.4564 4.63581 13.8304 4.60075 13.2039 4.60137C12.6672 4.55671 12.1287 4.66382 11.65 4.91049C11.1713 5.15715 10.7715 5.53342 10.4964 5.99637C10.174 6.54055 10.0104 7.16404 10.0239 7.79637V9.65637H7.92387V12.1014H10.0014V18.3939H12.5589Z" fill="white"/>
<path d="M14.9816 8.17291C15.9554 8.12546 16.1052 9.72099 15.0365 9.58116C14.1501 9.55619 14.0378 8.19789 14.9816 8.17291Z" fill="#37A6DE"/>
<path d="M18.1726 11.9723C18.25 6.26188 15.9628 5.52281 10.7468 5.83991C7.15384 5.56276 5.74309 8.28436 5.73312 11.5028C5.53837 14.6539 6.50964 18.6364 10.4322 18.3018C15.3286 18.2145 18.3998 17.7176 18.1726 11.9723ZM9.61077 2.14453C15.2188 1.62269 21.7106 2.42668 21.788 9.44541C21.9853 12.6764 22.0902 16.1395 20.5071 19.0709C18.8217 21.9373 16.0128 21.8174 13.0914 21.8849C10.5221 21.9872 7.87294 22.2095 5.39604 21.368C2.87169 20.4941 2.18505 18.589 2.23998 16.0971C2.15259 13.9523 2.0652 11.8125 2.10266 9.66513C2.2275 4.57648 4.44972 2.02718 9.61077 2.14453Z" fill="white"/>
<path d="M10.7467 5.84109C15.9626 5.52399 18.2473 6.26306 18.1724 11.9734C18.3996 17.7187 15.3284 18.2131 10.4345 18.303C6.50943 18.6376 5.54065 14.6526 5.7354 11.504C5.7429 8.28554 7.15363 5.56394 10.7467 5.84109ZM17.0737 12.1532C17.0737 8.61764 16.6393 6.74496 12.6243 6.92474C11.4308 7.04209 10.035 6.86481 8.83653 7.27181C6.42953 8.44784 6.76163 11.6813 6.98385 13.9235C7.20108 17.5465 10.2048 17.4391 13.0163 17.0346C16.4695 16.8523 17.1062 15.3617 17.0737 12.1532Z" fill="#37A6DE"/>
<path d="M12.3799 9.83253C9.83807 9.70271 9.05407 13.89 11.8431 14.0023C14.4648 13.9399 14.8668 10.5791 12.3799 9.83253ZM11.8481 8.87123C16.2376 8.57411 15.9679 15.061 11.8281 15.0161C7.90549 14.8962 8.27254 9.22081 11.8481 8.87123Z" fill="#37A6DE"/>
<path d="M11.8452 14.0029C9.0562 13.8881 9.83773 9.70082 12.3821 9.83315C14.8665 10.5797 14.4645 13.9405 11.8452 14.0029Z" fill="white"/>
<path d="M12.6242 6.92426C16.6392 6.74198 17.0762 8.61713 17.0737 12.1527C17.1036 15.3612 16.4694 16.8518 13.0162 17.0341C10.2048 17.4386 7.201 17.546 6.98378 13.923C6.76155 11.6783 6.43195 8.44733 8.83645 7.27131C10.035 6.86433 11.4307 7.04161 12.6242 6.92426ZM11.8302 15.0166C15.9676 15.0616 16.2397 8.57468 11.8502 8.87181C8.27215 9.22138 7.90513 14.8968 11.8302 15.0166ZM15.0362 9.58093C16.1049 9.72076 15.9551 8.12773 14.9813 8.17268C14.0375 8.19766 14.1498 9.55596 15.0362 9.58093Z" fill="white"/>
</svg>
